<?xml version="1.0" encoding="UTF-8"?>
<svg width="40px" height="40px" viewBox="0 0 40 40" version="1.1" xmlns="http://www.w3.org/2000/svg">
    <g stroke="none" stroke-width="1" fill="none" fill-rule="evenodd">
        <circle fill="#EFF6FF" cx="20" cy="20" r="20"></circle>
        
        <!-- Open Book Base -->
        <g transform="translate(5, 12)">
            <!-- Left Page -->
            <path d="M15,1 L3,6 C2.5,6.2 2,6.8 2,7.5 L2,25.5 C2,26.2 2.5,26.8 3,27 L15,22 L15,1 Z" fill="#FFFFFF" stroke="#6366F1" stroke-width="1.5"></path>
            
            <!-- Right Page -->
            <path d="M15,1 L27,6 C27.5,6.2 28,6.8 28,7.5 L28,25.5 C28,26.2 27.5,26.8 27,27 L15,22 L15,1 Z" fill="#F8FAFC" stroke="#6366F1" stroke-width="1.5"></path>
            
            <!-- Binding -->
            <path d="M15,1 L15,22" stroke="#6366F1" stroke-width="1.5" stroke-linecap="round"></path>
            
            <!-- Page Lines -->
            <path d="M6,10 L12,8" stroke="#94A3B8" stroke-width="1"></path>
            <path d="M6,13 L12,11" stroke="#94A3B8" stroke-width="1"></path>
            <path d="M6,16 L12,14" stroke="#94A3B8" stroke-width="1"></path>
            <path d="M18,8 L24,10" stroke="#94A3B8" stroke-width="1"></path>
            <path d="M18,11 L24,13" stroke="#94A3B8" stroke-width="1"></path>
            <path d="M18,14 L24,16" stroke="#94A3B8" stroke-width="1"></path>
        </g>
        
        <!-- Bookmark -->
        <path d="M25,8 L28,8 L28,16 L26.5,14 L25,16 Z" fill="#F43F5E" stroke="#F43F5E" stroke-width="1"></path>
    </g>
</svg>