<?xml version="1.0" encoding="UTF-8"?>
<svg width="100px" height="100px" viewBox="0 0 100 100" version="1.1" xmlns="http://www.w3.org/2000/svg">
    <g stroke="none" stroke-width="1" fill="none" fill-rule="evenodd">
        <pattern id="book-pattern" width="100" height="100" patternUnits="userSpaceOnUse">
            <!-- Book 1 -->
            <rect fill="#6366F1" x="10" y="30" width="12" height="50"></rect>
            <rect fill="#6366F1" opacity="0.7" x="10" y="30" width="12" height="2"></rect>
            <rect fill="#6366F1" opacity="0.7" x="10" y="40" width="12" height="2"></rect>
            <rect fill="#6366F1" opacity="0.7" x="10" y="50" width="12" height="2"></rect>
            <rect fill="#6366F1" opacity="0.7" x="10" y="60" width="12" height="2"></rect>
            <rect fill="#6366F1" opacity="0.7" x="10" y="70" width="12" height="2"></rect>
            
            <!-- Book 2 -->
            <rect fill="#F43F5E" x="22" y="25" width="8" height="55"></rect>
            <rect fill="#F43F5E" opacity="0.7" x="22" y="30" width="8" height="2"></rect>
            <rect fill="#F43F5E" opacity="0.7" x="22" y="40" width="8" height="2"></rect>
            <rect fill="#F43F5E" opacity="0.7" x="22" y="50" width="8" height="2"></rect>
            <rect fill="#F43F5E" opacity="0.7" x="22" y="60" width="8" height="2"></rect>
            <rect fill="#F43F5E" opacity="0.7" x="22" y="70" width="8" height="2"></rect>
            
            <!-- Book 3 -->
            <rect fill="#10B981" x="30" y="35" width="15" height="45"></rect>
            <rect fill="#10B981" opacity="0.7" x="30" y="40" width="15" height="2"></rect>
            <rect fill="#10B981" opacity="0.7" x="30" y="50" width="15" height="2"></rect>
            <rect fill="#10B981" opacity="0.7" x="30" y="60" width="15" height="2"></rect>
            <rect fill="#10B981" opacity="0.7" x="30" y="70" width="15" height="2"></rect>
            
            <!-- Book 4 -->
            <rect fill="#8B5CF6" x="45" y="20" width="10" height="60"></rect>
            <rect fill="#8B5CF6" opacity="0.7" x="45" y="30" width="10" height="2"></rect>
            <rect fill="#8B5CF6" opacity="0.7" x="45" y="40" width="10" height="2"></rect>
            <rect fill="#8B5CF6" opacity="0.7" x="45" y="50" width="10" height="2"></rect>
            <rect fill="#8B5CF6" opacity="0.7" x="45" y="60" width="10" height="2"></rect>
            <rect fill="#8B5CF6" opacity="0.7" x="45" y="70" width="10" height="2"></rect>
            
            <!-- Book 5 -->
            <rect fill="#F97316" x="55" y="25" width="7" height="55"></rect>
            <rect fill="#F97316" opacity="0.7" x="55" y="30" width="7" height="2"></rect>
            <rect fill="#F97316" opacity="0.7" x="55" y="40" width="7" height="2"></rect>
            <rect fill="#F97316" opacity="0.7" x="55" y="50" width="7" height="2"></rect>
            <rect fill="#F97316" opacity="0.7" x="55" y="60" width="7" height="2"></rect>
            <rect fill="#F97316" opacity="0.7" x="55" y="70" width="7" height="2"></rect>
            
            <!-- Book 6 -->
            <rect fill="#3B82F6" x="62" y="30" width="13" height="50"></rect>
            <rect fill="#3B82F6" opacity="0.7" x="62" y="40" width="13" height="2"></rect>
            <rect fill="#3B82F6" opacity="0.7" x="62" y="50" width="13" height="2"></rect>
            <rect fill="#3B82F6" opacity="0.7" x="62" y="60" width="13" height="2"></rect>
            <rect fill="#3B82F6" opacity="0.7" x="62" y="70" width="13" height="2"></rect>
            
            <!-- Book 7 -->
            <rect fill="#EAB308" x="75" y="35" width="9" height="45"></rect>
            <rect fill="#EAB308" opacity="0.7" x="75" y="40" width="9" height="2"></rect>
            <rect fill="#EAB308" opacity="0.7" x="75" y="50" width="9" height="2"></rect>
            <rect fill="#EAB308" opacity="0.7" x="75" y="60" width="9" height="2"></rect>
            <rect fill="#EAB308" opacity="0.7" x="75" y="70" width="9" height="2"></rect>
            
            <!-- Shelf -->
            <rect fill="#64748B" x="5" y="80" width="90" height="3"></rect>
        </pattern>
        
        <rect fill="url(#book-pattern)" x="0" y="0" width="100%" height="100%"></rect>
    </g>
</svg>